<?xml version="1.0" standalone="no"?>
<!DOCTYPE svg PUBLIC "-//W3C//DTD SVG 20010904//EN"
 "http://www.w3.org/TR/2001/REC-SVG-20010904/DTD/svg10.dtd">
<svg version="1.0" xmlns="http://www.w3.org/2000/svg"
 width="387.000000pt" height="387.000000pt" viewBox="0 0 387.000000 387.000000"
 preserveAspectRatio="xMidYMid meet">
<metadata>
Created by potrace 1.11, written by Peter Selinger 2001-2013
</metadata>
<g transform="translate(0.000000,387.000000) scale(0.100000,-0.100000)"
fill="#000000" stroke="none">
<path d="M1798 3865 c-2 -1 -36 -5 -76 -9 -152 -13 -370 -68 -532 -134 -128
-52 -351 -177 -406 -227 -6 -5 -26 -21 -44 -35 -65 -49 -126 -103 -198 -177
-244 -252 -411 -553 -492 -887 -19 -79 -25 -109 -38 -191 -3 -22 -6 -139 -6
-260 0 -199 4 -269 19 -345 3 -14 7 -34 9 -46 76 -403 328 -824 651 -1090 33
-27 62 -52 65 -55 15 -17 196 -132 270 -171 133 -70 349 -152 450 -172 14 -3
52 -10 85 -16 303 -59 631 -43 925 46 579 175 1050 621 1255 1188 34 94 68
218 79 286 3 19 8 46 11 60 19 89 27 415 13 525 -11 79 -18 128 -24 155 -3 14
-8 36 -10 50 -3 14 -16 66 -31 115 -121 422 -377 779 -748 1046 -27 20 -63 44
-80 53 -16 9 -46 26 -65 38 -170 102 -399 186 -610 223 -47 8 -105 17 -130 20
-47 7 -336 15 -342 10z"/>
</g>
</svg>
